<?xml version="1.0" encoding="UTF-8" standalone="no" ?>
<!DOCTYPE svg PUBLIC "-//W3C//DTD SVG 1.1//EN" "http://www.w3.org/Graphics/SVG/1.1/DTD/svg11.dtd">
<svg xmlns="http://www.w3.org/2000/svg" xmlns:xlink="http://www.w3.org/1999/xlink" version="1.1" width="1280" height="1024" viewBox="0 0 1280 1024" xml:space="preserve">
<desc>Created with Fabric.js 4.4.0</desc>
<defs>
</defs>
<g transform="matrix(1 0 0 1 640 512)" id="background-logo"  >
<rect style="stroke: none; stroke-width: 0; stroke-dasharray: none; stroke-linecap: butt; stroke-dashoffset: 0; stroke-linejoin: miter; stroke-miterlimit: 4; fill: rgb(255,255,255); fill-opacity: 0; fill-rule: nonzero; opacity: 1;"  paint-order="stroke"  x="-640" y="-512" rx="0" ry="0" width="1280" height="1024" />
</g>
<g transform="matrix(1.9211538461538462 0 0 1.9211538461538462 642.8706664874724 792.6809203510286)" id="text-logo-path-group"  >
<g style=""  paint-order="stroke"   >
		<g transform="matrix(1 0 0 1 0 0)" id="text-logo-path-0"  >
<path style="stroke: none; stroke-width: 0; stroke-dasharray: none; stroke-linecap: butt; stroke-dashoffset: 0; stroke-linejoin: miter; stroke-miterlimit: 4; fill: rgb(255,255,255); fill-rule: nonzero; opacity: 1;"  paint-order="stroke"  transform=" translate(-128.965, 22.54)" d="M 21.38 -45.14 L 4.16 -45.14 L 4.16 0 L 15.11 0 L 15.11 -14.52 L 21.38 -14.52 C 29.9 -14.52 36.76 -21.38 36.76 -29.83 C 36.76 -38.28 29.9 -45.14 21.38 -45.14 Z M 15.11 -24.95 L 15.11 -34.72 L 21.38 -34.72 C 24.22 -34.72 26.27 -32.67 26.27 -29.83 C 26.27 -27.06 24.16 -24.95 21.38 -24.95 Z M 56.63 -14.52 L 64.75 0 L 77.29 0 L 67.85 -17.03 C 72.2 -19.87 74.71 -24.68 74.71 -29.83 C 74.71 -38.35 67.91 -45.14 59.47 -45.14 L 40.33 -45.14 L 40.33 0 L 51.35 0 L 51.35 -14.52 Z M 51.35 -24.95 L 51.35 -34.72 L 59.47 -34.72 C 62.24 -34.72 64.35 -32.6 64.35 -29.83 C 64.35 -27.19 62.11 -24.95 59.47 -24.95 Z M 80.45 -45.14 L 80.45 0 L 91.48 0 L 91.48 -45.14 Z M 126.52 -45.14 L 116.82 -16.1 L 107.25 -45.14 L 95.7 -45.14 L 110.68 0 L 123.09 0 L 138.07 -45.14 Z M 157.81 0.92 C 166.19 0.92 174.31 -3.76 174.31 -12.8 C 174.31 -21.71 167.31 -25.41 159.72 -27.72 C 157.67 -28.38 156.16 -28.97 155.17 -29.44 C 153.78 -30.1 152.79 -30.82 152.79 -32.47 C 152.79 -34.39 155.23 -35.11 156.75 -35.11 C 160.31 -35.11 162.1 -33.53 163.61 -30.43 L 172.99 -35.9 C 169.75 -42.57 164.14 -46 156.75 -46 C 148.7 -46 141.83 -40.79 141.83 -32.47 C 141.83 -23.96 147.91 -20.59 155.23 -18.41 C 157.54 -17.75 159.19 -17.16 160.31 -16.7 C 161.83 -16.1 163.35 -15.31 163.35 -13.46 C 163.35 -11.02 160.05 -9.83 158.07 -9.83 C 153.78 -9.83 150.81 -11.48 149.16 -15.58 L 139.92 -10.16 C 142.89 -2.57 149.89 0.92 157.81 0.92 Z M 189.49 -10.36 L 189.49 -17.89 L 205.19 -17.89 L 205.19 -28.25 L 189.49 -28.25 L 189.49 -34.72 L 206.78 -34.72 L 206.78 -45.14 L 178.46 -45.14 L 178.46 0 L 207.11 0 L 207.11 -10.36 Z M 209.95 -22.37 C 209.95 -9.5 220.51 0.92 233.24 0.92 C 241.76 0.92 249.81 -3.96 253.77 -11.48 L 244.07 -16.76 C 242.09 -12.74 237.73 -10.1 233.24 -10.1 C 226.51 -10.1 220.9 -15.71 220.9 -22.37 C 220.9 -29.11 226.58 -34.65 233.24 -34.65 C 237.73 -34.65 241.82 -32.27 244 -28.31 L 253.64 -33.46 C 249.61 -40.99 241.76 -45.61 233.24 -45.61 C 220.44 -45.61 209.95 -35.31 209.95 -22.37 Z" stroke-linecap="round" />
</g>
</g>
</g>
<g transform="matrix(2.04351208850871 0 0 2.04351208850871 640.620034756703 429.01159180215177)" id="logo-logo"  >
<g style=""  paint-order="stroke"   >
		<g transform="matrix(0.3773151715268762 0 0 0.1411560501158675 -70.48081114633018 46.20298083552453)"  >
<g style=""  paint-order="stroke"   >
		<g transform="matrix(1 0 0 1 0 0)"  >
<rect style="stroke: none; stroke-width: 1; stroke-dasharray: none; stroke-linecap: butt; stroke-dashoffset: 0; stroke-linejoin: miter; stroke-miterlimit: 4; fill: rgb(255,255,255); fill-rule: nonzero; opacity: 1;"  paint-order="stroke"  x="-100" y="-100" rx="0" ry="0" width="200" height="200" />
</g>
</g>
</g>
		<g transform="matrix(0.25151110043902086 0 0 -0.25151110043902086 -86.60910499167906 46.81713725163334)"  >
<path style="stroke: none; stroke-width: 1; stroke-dasharray: none; stroke-linecap: butt; stroke-dashoffset: 0; stroke-linejoin: miter; stroke-miterlimit: 4; fill: rgb(255,255,255); fill-rule: nonzero; opacity: 1;"  paint-order="stroke"  transform=" translate(-1292.695, -1129.025)" d="M 1452.27 1186 L 1400.55 1072.05 L 1133.12 1072.05 L 1202.75 1186 L 1452.27 1186" stroke-linecap="round" />
</g>
		<g transform="matrix(0.25151110043902086 0 0 -0.25151110043902086 8.013143659987236 2.842171e-14)"  >
<path style="stroke: none; stroke-width: 1; stroke-dasharray: none; stroke-linecap: butt; stroke-dashoffset: 0; stroke-linejoin: miter; stroke-miterlimit: 4; fill: rgb(255,255,255); fill-rule: nonzero; opacity: 1;"  paint-order="stroke"  transform=" translate(-1668.9099999999999, -1315.1684233714234)" d="M 1754.61 1845.17 L 1346.81 1845.17 L 1196.84 1599.71 L 1743.8899999999999 1599.71 L 1895.7099999999998 1458.6100000000001 L 1743.8899999999999 1317.5 L 1283.09 1317.5 L 1202.75 1186.01 L 1452.27 1186.01 L 1400.55 1072.05 L 1292.32 832.8789999999999 C 1277.37 800.0039999999999 1318 769.8979999999999 1345.1499999999999 793.723 L 1726.8999999999999 1072.05 L 1754.61 1072.05 C 1967.9199999999998 1072.05 2140.98 1245.11 2140.98 1458.61 C 2140.98 1672.11 1967.92 1845.1699999999998 1754.6100000000001 1845.1699999999998" stroke-linecap="round" />
</g>
		<g transform="matrix(0.25151110043902086 0 0 -0.25151110043902086 18.395521886110032 -36.65813942857548)"  >
<path style="stroke: none; stroke-width: 1; stroke-dasharray: none; stroke-linecap: butt; stroke-dashoffset: 0; stroke-linejoin: miter; stroke-miterlimit: 4; fill: rgb(217,217,216); fill-rule: nonzero; opacity: 1;"  paint-order="stroke"  transform=" translate(-1710.19, -1460.9199999999998)" d="M 2140.98 1458.61 C 2140.98 1265.4199999999998 1999.5 1105.48 1814.45 1076.6699999999998 C 1928.03 1135.59 2005.41 1251.57 2005.41 1384.9199999999998 C 2005.41 1578.1 1842.89 1734.7199999999998 1642.68 1734.7199999999998 L 1279.4 1734.7199999999998 L 1346.8100000000002 1845.1699999999998 L 1754.6100000000001 1845.1699999999998 C 1967.92 1845.1699999999998 2140.98 1672.11 2140.98 1458.61" stroke-linecap="round" />
</g>
</g>
</g>
</svg>